<svg width="28" height="28" viewBox="0 0 28 28" fill="none" xmlns="http://www.w3.org/2000/svg">
<path d="M13.4547 24.8668L13.4469 24.8621L13.417 24.8464L13.3117 24.7914L12.9298 24.5792C11.0143 23.4906 9.20726 22.2213 7.5333 20.7888C4.64173 18.2948 1.42801 14.553 1.42801 10.0711C1.42815 8.60875 1.88162 7.18241 2.72599 5.98847C3.57036 4.79453 4.7641 3.89171 6.14284 3.40433C7.52157 2.91695 9.0175 2.86897 10.4246 3.267C11.8318 3.66504 13.0809 4.4895 14 5.62688C14.9192 4.4895 16.1683 3.66504 17.5754 3.267C18.9826 2.86897 20.4785 2.91695 21.8572 3.40433C23.236 3.89171 24.4297 4.79453 25.2741 5.98847C26.1185 7.18241 26.5719 8.60875 26.5721 10.0711C26.5721 14.553 23.3599 18.2948 20.4668 20.7888C18.651 22.3409 16.6792 23.7007 14.5831 24.8464L14.5532 24.8621L14.5454 24.8668H14.5422C14.3752 24.9551 14.1892 25.0014 14.0002 25.0017C13.8113 25.002 13.6251 24.9562 13.4579 24.8684L13.4547 24.8668Z" fill="#4595DD"/>
</svg>
