<svg width="28" height="28" viewBox="0 0 28 28" fill="none" xmlns="http://www.w3.org/2000/svg">
<path d="M2.09534 20.6215C2.09534 21.0154 2.30109 21.3807 2.63796 21.5849L11.5132 26.9635C12.2639 27.4185 13.2234 26.878 13.2234 26.0002V15.6308C13.2234 15.237 13.0177 14.8717 12.6809 14.6676L3.80566 9.288C3.05496 8.83297 2.09534 9.37345 2.09534 10.2513V20.6215ZM25.3691 21.5849C25.706 21.3807 25.9118 21.0154 25.9118 20.6215V10.2513C25.9118 9.37345 24.9521 8.83297 24.2014 9.288L15.3262 14.6676C14.9894 14.8717 14.7837 15.237 14.7837 15.6308V26.0002C14.7837 26.878 15.7432 27.4185 16.4939 26.9635L25.3691 21.5849ZM23.0799 7.72078C23.8033 7.2823 23.8033 6.23268 23.0799 5.7942L14.1047 0.353922C13.7458 0.136395 13.2958 0.136395 12.9369 0.353922L3.96165 5.7942C3.23826 6.23268 3.23826 7.28231 3.96165 7.72079L12.9369 13.1611C13.2958 13.3786 13.7458 13.3786 14.1047 13.1611L23.0799 7.72078Z" fill="#4595DD"/>
</svg>
