<svg width="16" height="16" viewBox="0 0 16 16" fill="none" xmlns="http://www.w3.org/2000/svg">
<path d="M11.6247 0.750683C12.6256 -0.250202 14.2488 -0.250225 15.2497 0.750683C16.2504 1.75161 16.2505 3.37483 15.2497 4.37568L11.6247 7.99971L15.2497 11.6247C16.2504 12.6256 16.2505 14.2489 15.2497 15.2497C14.2489 16.2505 12.6257 16.2504 11.6247 15.2497L7.99971 11.6247L4.37569 15.2497C3.37484 16.2505 1.75162 16.2504 0.75069 15.2497C-0.25022 14.2488 -0.250199 12.6256 0.75069 11.6247L4.37569 7.99971L0.75069 4.37568C-0.25023 3.37476 -0.25023 1.7516 0.75069 0.750683C1.75161 -0.250223 3.37478 -0.250232 4.37569 0.750683L7.99971 4.37568L11.6247 0.750683Z" fill="#8CBFEE"/>
</svg>
