<svg width="28" height="28" viewBox="0 0 28 28" fill="none" xmlns="http://www.w3.org/2000/svg">
<path d="M14 13.475C11.8767 11.4917 9.19333 10.1033 6.20667 9.56666C4.795 9.32166 3.5 10.4417 3.5 11.8767V19.1567C3.5 21.1167 4.34 22.1433 5.495 22.295C8.41167 22.6683 11.06 23.87 13.23 25.6433C13.6383 25.9817 14.3033 26.0167 14.7117 25.69C16.8933 23.905 19.565 22.68 22.505 22.3067C23.6017 22.155 24.5 21.07 24.5 19.95V11.8767C24.5 10.4417 23.205 9.32166 21.7933 9.56666C18.8067 10.1033 16.1233 11.4917 14 13.475ZM14 9.33333C15.9367 9.33333 17.5 7.77 17.5 5.83333C17.5 3.89666 15.9367 2.33333 14 2.33333C12.0633 2.33333 10.5 3.89666 10.5 5.83333C10.5 7.77 12.0633 9.33333 14 9.33333Z" fill="#4595DD"/>
</svg>
