<svg width="28" height="28" viewBox="0 0 28 28" fill="none" xmlns="http://www.w3.org/2000/svg">
<path d="M13.9977 2.33333L14.035 2.33566L14.1354 2.34149C14.2746 2.35765 14.4097 2.39875 14.5344 2.46283L14.6569 2.53516L14.77 2.62383L14.7887 2.64133L15.0769 2.88633C17.4304 4.84115 20.4049 5.89085 23.464 5.84616L23.863 5.83449C24.1239 5.82259 24.3812 5.89855 24.5938 6.05021C24.8063 6.20187 24.9619 6.42046 25.0355 6.67099C25.6088 8.62117 25.7842 10.6667 25.5514 12.686C25.3185 14.7053 24.6821 16.6572 23.68 18.4257C22.6779 20.1942 21.3305 21.7432 19.7179 22.9807C18.1053 24.2182 16.2604 25.1189 14.2929 25.6293C14.1008 25.6791 13.8992 25.6791 13.7072 25.6293C11.7395 25.1191 9.89448 24.2184 8.28176 22.981C6.66903 21.7436 5.32151 20.1946 4.31928 18.4261C3.31705 16.6575 2.68055 14.7056 2.44762 12.6862C2.21469 10.6668 2.39007 8.62125 2.96335 6.67099C3.03698 6.42046 3.19253 6.20187 3.40511 6.05021C3.61768 5.89855 3.87499 5.82259 4.13585 5.83449C7.46747 5.98676 10.7275 4.83606 13.2254 2.62616L13.279 2.58416L13.3409 2.53633C13.4196 2.48259 13.5046 2.43871 13.594 2.40566L13.6815 2.37883L13.7235 2.36716C13.7696 2.35576 13.8164 2.34719 13.8635 2.34149L13.9639 2.33566L13.9977 2.33333ZM14 5.01199L13.7947 5.1695C11.3302 7.00855 8.3649 8.05502 5.29202 8.17016L4.98402 8.17716L4.90935 8.53883C4.36481 11.3892 4.80239 14.34 6.15069 16.9097L6.34902 17.276C7.99662 20.1829 10.713 22.3325 13.9207 23.268L14 23.2902V5.01199Z" fill="#4595DD"/>
</svg>
