<svg width="63" height="63" viewBox="0 0 63 63" fill="none" xmlns="http://www.w3.org/2000/svg">
<path d="M30.3682 3.58984C30.9661 2.90218 32.0339 2.90218 32.6318 3.58984L37.3564 9.02734C38.3747 10.1993 39.9257 10.7637 41.459 10.5205L48.5723 9.3916C49.4727 9.24876 50.2919 9.93606 50.3076 10.8477L50.4316 18.0498C50.4584 19.602 51.2834 21.0308 52.6143 21.8301L58.7891 25.5381C59.5706 26.0074 59.7564 27.0601 59.1826 27.7686L54.6484 33.3652C53.6712 34.5714 53.384 36.1963 53.8896 37.6641L56.2363 44.4746C56.5332 45.3366 55.9994 46.2618 55.1045 46.4355L48.0332 47.8086C46.5093 48.1045 45.2454 49.1648 44.6895 50.6143L42.1094 57.3389C41.7828 58.1901 40.7788 58.5565 39.9814 58.1143L33.6826 54.6201C32.325 53.8672 30.675 53.8672 29.3174 54.6201L23.0186 58.1143C22.2212 58.5565 21.2172 58.1901 20.8906 57.3389L18.3105 50.6143C17.7546 49.1648 16.4907 48.1045 14.9668 47.8086L7.89551 46.4355C7.00055 46.2618 6.46675 45.3365 6.76367 44.4746L9.11035 37.6641C9.61602 36.1964 9.3288 34.5714 8.35156 33.3652L3.81738 27.7686C3.24357 27.0601 3.42936 26.0075 4.21094 25.5381L10.3857 21.8301C11.7166 21.0308 12.5416 19.602 12.5684 18.0498L12.6924 10.8477C12.7081 9.93606 13.5273 9.24876 14.4277 9.3916L21.541 10.5205C23.0743 10.7637 24.6253 10.1993 25.6436 9.02734L30.3682 3.58984Z" fill="#9094FB" stroke="white" stroke-width="3"/>
<path d="M19.7312 33.252C19.3952 33.26 19.0552 33.276 18.7112 33.3C18.3752 33.324 18.0392 33.328 17.7032 33.312C17.1992 33.296 16.6992 33.292 16.2032 33.3C15.7152 33.3 15.2192 33.292 14.7152 33.276C14.6672 33.276 14.6192 33.276 14.5712 33.276C14.5232 33.268 14.4792 33.248 14.4392 33.216C14.4072 33.184 14.3832 33.132 14.3672 33.06C14.3592 32.988 14.3512 32.912 14.3432 32.832C14.3432 32.752 14.3432 32.676 14.3432 32.604C14.3432 32.524 14.3392 32.464 14.3312 32.424C14.3152 32.344 14.3072 32.24 14.3072 32.112C14.3072 31.976 14.3112 31.836 14.3192 31.692C14.3272 31.548 14.3312 31.408 14.3312 31.272C14.3392 31.136 14.3392 31.028 14.3312 30.948C14.3152 30.82 14.3112 30.728 14.3192 30.672C14.3352 30.608 14.3632 30.564 14.4032 30.54C14.4432 30.516 14.5072 30.504 14.5952 30.504C14.6832 30.496 14.7992 30.488 14.9432 30.48C15.3672 30.456 15.7832 30.44 16.1912 30.432C16.6072 30.416 17.0272 30.404 17.4512 30.396C17.7872 30.396 18.1272 30.4 18.4712 30.408C18.8152 30.416 19.1552 30.404 19.4912 30.372C19.5712 30.364 19.6632 30.36 19.7672 30.36C19.8792 30.36 19.9512 30.396 19.9832 30.468C20.0152 30.532 20.0312 30.616 20.0312 30.72C20.0552 30.944 20.0632 31.16 20.0552 31.368C20.0472 31.568 20.0512 31.78 20.0672 32.004C20.0672 32.06 20.0712 32.14 20.0792 32.244C20.0952 32.348 20.1032 32.456 20.1032 32.568C20.1112 32.68 20.1112 32.788 20.1032 32.892C20.0952 32.988 20.0752 33.06 20.0432 33.108C20.0112 33.156 19.9672 33.192 19.9112 33.216C19.8552 33.232 19.7952 33.244 19.7312 33.252ZM24.0947 36.264C23.4627 36.336 22.8467 36.276 22.2467 36.084C22.0627 36.02 21.8827 35.944 21.7067 35.856C21.5307 35.768 21.3707 35.656 21.2267 35.52C21.0187 35.328 20.8707 35.092 20.7827 34.812C20.7107 34.58 20.6587 34.344 20.6267 34.104C20.6027 33.856 20.5947 33.612 20.6027 33.372C20.6027 33.3 20.6067 33.228 20.6147 33.156C20.6227 33.076 20.6467 33.004 20.6867 32.94C20.7107 32.908 20.7547 32.884 20.8187 32.868C20.8827 32.844 20.9507 32.832 21.0227 32.832C21.1027 32.824 21.1787 32.82 21.2507 32.82C21.3227 32.82 21.3827 32.82 21.4307 32.82C21.6387 32.812 21.8427 32.804 22.0427 32.796C22.2427 32.78 22.4467 32.764 22.6547 32.748C22.7587 32.748 22.8307 32.768 22.8707 32.808C22.8947 32.832 22.9067 32.864 22.9067 32.904C22.9147 32.936 22.9187 32.972 22.9187 33.012C22.9187 33.052 22.9227 33.124 22.9307 33.228C22.9387 33.324 22.9587 33.388 22.9907 33.42C23.1027 33.54 23.2387 33.58 23.3987 33.54C23.5587 33.5 23.6947 33.416 23.8067 33.288C23.9267 33.16 23.9987 33.012 24.0227 32.844C24.0547 32.668 23.9907 32.512 23.8307 32.376C23.7667 32.32 23.6987 32.276 23.6267 32.244C23.5547 32.212 23.4787 32.184 23.3987 32.16C23.0867 32.072 22.7667 32.044 22.4387 32.076C22.1107 32.1 21.7907 32.144 21.4787 32.208C21.4147 32.224 21.3427 32.232 21.2627 32.232C21.1907 32.232 21.1227 32.22 21.0587 32.196C20.9627 32.156 20.8907 32.084 20.8427 31.98C20.7947 31.876 20.7587 31.772 20.7347 31.668C20.6867 31.436 20.6627 31.2 20.6627 30.96C20.6627 30.72 20.6627 30.484 20.6627 30.252C20.6627 29.996 20.6667 29.74 20.6747 29.484C20.6907 29.228 20.7067 28.972 20.7227 28.716C20.6987 28.404 20.6867 28.088 20.6867 27.768C20.6867 27.688 20.6907 27.608 20.6987 27.528C20.7147 27.448 20.7427 27.376 20.7827 27.312C20.8067 27.272 20.8427 27.236 20.8907 27.204C20.9387 27.172 20.9867 27.148 21.0347 27.132C21.1067 27.116 21.1787 27.108 21.2507 27.108C21.3307 27.1 21.4107 27.096 21.4907 27.096C22.0027 27.096 22.5107 27.108 23.0147 27.132C23.5267 27.148 24.0387 27.152 24.5507 27.144C24.7987 27.136 25.0427 27.128 25.2827 27.12C25.5307 27.112 25.7787 27.124 26.0267 27.156C26.1307 27.164 26.2027 27.204 26.2427 27.276C26.2907 27.348 26.3187 27.436 26.3267 27.54C26.3427 27.636 26.3427 27.744 26.3267 27.864C26.3187 27.984 26.3107 28.096 26.3027 28.2C26.2867 28.368 26.2787 28.54 26.2787 28.716C26.2867 28.884 26.2867 29.056 26.2787 29.232C26.2707 29.296 26.2547 29.364 26.2307 29.436C26.2067 29.508 26.1627 29.56 26.0987 29.592C26.0347 29.632 25.9667 29.656 25.8947 29.664C25.8307 29.672 25.7667 29.68 25.7027 29.688C25.3587 29.696 25.0147 29.7 24.6707 29.7C24.3267 29.692 23.9787 29.676 23.6267 29.652C23.5467 29.644 23.4667 29.64 23.3867 29.64C23.3067 29.632 23.2227 29.628 23.1347 29.628C23.0947 29.612 23.0507 29.612 23.0027 29.628C22.9867 29.644 22.9787 29.668 22.9787 29.7C22.9547 29.78 22.9387 29.864 22.9307 29.952C22.9307 30.032 22.9347 30.116 22.9427 30.204C23.2467 30.1 23.5587 30.028 23.8787 29.988C24.2067 29.948 24.5267 29.952 24.8387 30C25.2307 30.064 25.5627 30.216 25.8347 30.456C26.1147 30.688 26.3347 30.968 26.4947 31.296C26.6627 31.624 26.7747 31.984 26.8307 32.376C26.8947 32.76 26.9067 33.132 26.8667 33.492C26.8267 33.844 26.7267 34.18 26.5667 34.5C26.4067 34.812 26.1987 35.092 25.9427 35.34C25.6947 35.588 25.4107 35.792 25.0907 35.952C24.7787 36.112 24.4467 36.216 24.0947 36.264ZM31.0602 36.072C30.7402 36.08 30.4202 36.072 30.1002 36.048C29.7802 36.024 29.4682 35.972 29.1642 35.892C28.9882 35.852 28.8162 35.792 28.6482 35.712C28.4882 35.624 28.3482 35.516 28.2282 35.388C28.0282 35.18 27.8762 34.952 27.7722 34.704C27.6682 34.448 27.5922 34.188 27.5442 33.924C27.5042 33.66 27.4762 33.392 27.4602 33.12C27.4442 32.736 27.4242 32.36 27.4002 31.992C27.3762 31.616 27.3562 31.236 27.3402 30.852C27.3322 30.452 27.3442 30.052 27.3762 29.652C27.4162 29.252 27.5122 28.864 27.6642 28.488C27.7442 28.304 27.8402 28.128 27.9522 27.96C28.0722 27.784 28.2162 27.64 28.3842 27.528C28.6002 27.384 28.8362 27.272 29.0922 27.192C29.3562 27.104 29.6202 27.056 29.8842 27.048C30.3002 27.032 30.7122 27 31.1202 26.952C31.5362 26.904 31.9562 26.896 32.3802 26.928C32.5642 26.944 32.7482 26.968 32.9322 27C33.1162 27.024 33.2922 27.072 33.4602 27.144C33.7562 27.28 34.0322 27.476 34.2882 27.732C34.4642 27.9 34.5882 28.104 34.6602 28.344C34.7402 28.576 34.8082 28.808 34.8642 29.04C34.9282 29.336 34.9642 29.636 34.9722 29.94C34.9802 30.236 34.9802 30.536 34.9722 30.84C34.9562 31.32 34.9402 31.796 34.9242 32.268C34.9162 32.74 34.8682 33.216 34.7802 33.696C34.7402 33.912 34.6922 34.132 34.6362 34.356C34.5882 34.572 34.5002 34.772 34.3722 34.956C34.2762 35.1 34.1642 35.236 34.0362 35.364C33.9162 35.484 33.7762 35.588 33.6162 35.676C33.4482 35.764 33.2682 35.832 33.0762 35.88C32.8922 35.92 32.7042 35.952 32.5122 35.976C32.2722 36.016 32.0322 36.04 31.7922 36.048C31.5522 36.064 31.3082 36.072 31.0602 36.072ZM30.7602 33.288C30.8242 33.344 30.9002 33.392 30.9882 33.432C31.0842 33.464 31.1842 33.488 31.2882 33.504C31.3922 33.512 31.4922 33.508 31.5882 33.492C31.6842 33.476 31.7682 33.448 31.8402 33.408C31.8882 33.376 31.9282 33.344 31.9602 33.312C32.0002 33.272 32.0362 33.232 32.0682 33.192C32.1802 33.032 32.2602 32.86 32.3082 32.676C32.3642 32.492 32.4002 32.308 32.4162 32.124C32.4242 31.98 32.4282 31.8 32.4282 31.584C32.4282 31.368 32.4122 31.148 32.3802 30.924C32.3562 30.7 32.3122 30.492 32.2482 30.3C32.1842 30.108 32.0962 29.964 31.9842 29.868C31.8882 29.78 31.7642 29.728 31.6122 29.712C31.4682 29.696 31.3282 29.696 31.1922 29.712C31.1522 29.728 31.1122 29.74 31.0722 29.748C31.0322 29.748 30.9922 29.752 30.9522 29.76C30.9042 29.76 30.8322 29.788 30.7362 29.844C30.6402 29.892 30.5762 29.936 30.5442 29.976C30.5202 30 30.4922 30.044 30.4602 30.108C30.4362 30.164 30.4122 30.224 30.3882 30.288C30.3722 30.352 30.3562 30.416 30.3402 30.48C30.3322 30.544 30.3242 30.592 30.3162 30.624C30.2922 30.792 30.2762 31.004 30.2682 31.26C30.2682 31.508 30.2802 31.764 30.3042 32.028C30.3362 32.292 30.3882 32.54 30.4602 32.772C30.5322 32.996 30.6322 33.168 30.7602 33.288ZM41.4361 36.3C41.2281 36.308 41.0161 36.308 40.8001 36.3C40.5841 36.292 40.3721 36.276 40.1641 36.252C40.1241 36.244 40.0841 36.24 40.0441 36.24C40.0041 36.248 39.9641 36.252 39.9241 36.252C39.8441 36.244 39.7601 36.228 39.6721 36.204C39.5841 36.18 39.5201 36.132 39.4801 36.06C39.4561 36.012 39.4521 35.936 39.4681 35.832C39.4921 35.72 39.5121 35.64 39.5281 35.592C39.5601 35.472 39.6001 35.356 39.6481 35.244C39.7041 35.124 39.7521 35.008 39.7921 34.896C39.8561 34.696 39.9161 34.496 39.9721 34.296C40.0361 34.096 40.1041 33.9 40.1761 33.708C40.2961 33.372 40.4161 33.04 40.5361 32.712C40.6561 32.384 40.7761 32.052 40.8961 31.716C41.0561 31.26 41.2241 30.804 41.4001 30.348C41.5761 29.892 41.7441 29.432 41.9041 28.968C41.9921 28.736 42.0721 28.504 42.1441 28.272C42.2161 28.032 42.2881 27.796 42.3601 27.564C42.4001 27.46 42.4401 27.356 42.4801 27.252C42.5281 27.14 42.6001 27.064 42.6961 27.024C42.7441 27.008 42.7921 27 42.8401 27C42.8961 26.992 42.9481 26.988 42.9961 26.988C43.2521 26.98 43.5081 26.988 43.7641 27.012C44.0281 27.036 44.2881 27.052 44.5441 27.06C44.6081 27.06 44.6721 27.072 44.7361 27.096C44.8001 27.112 44.8481 27.148 44.8801 27.204C44.9041 27.252 44.9121 27.316 44.9041 27.396C44.8961 27.476 44.8761 27.56 44.8441 27.648C44.8201 27.736 44.7881 27.824 44.7481 27.912C44.7161 27.992 44.6921 28.056 44.6761 28.104C44.6041 28.288 44.5281 28.472 44.4481 28.656C44.3761 28.84 44.3081 29.024 44.2441 29.208C43.9961 29.872 43.7441 30.528 43.4881 31.176C43.2401 31.824 43.0001 32.484 42.7681 33.156C42.6321 33.548 42.4961 33.936 42.3601 34.32C42.2241 34.704 42.0961 35.096 41.9761 35.496C41.9601 35.544 41.9401 35.612 41.9161 35.7C41.9001 35.78 41.8761 35.86 41.8441 35.94C41.8201 36.02 41.7881 36.092 41.7481 36.156C41.7161 36.22 41.6721 36.26 41.6161 36.276C41.5361 36.292 41.4761 36.3 41.4361 36.3ZM38.3041 33.096C38.0641 33.104 37.8201 33.1 37.5721 33.084C37.3321 33.068 37.0961 33.028 36.8641 32.964C36.7121 32.924 36.5601 32.876 36.4081 32.82C36.2641 32.756 36.1321 32.672 36.0121 32.568C35.9241 32.488 35.8401 32.396 35.7601 32.292C35.6801 32.188 35.6201 32.08 35.5801 31.968C35.4761 31.704 35.4121 31.428 35.3881 31.14C35.3641 30.852 35.3601 30.564 35.3761 30.276C35.3921 29.948 35.4321 29.62 35.4961 29.292C35.5601 28.964 35.6761 28.66 35.8441 28.38C35.9961 28.116 36.1881 27.904 36.4201 27.744C36.5641 27.656 36.7161 27.588 36.8761 27.54C37.0441 27.484 37.2081 27.448 37.3681 27.432C37.6241 27.4 37.8761 27.392 38.1241 27.408C38.3721 27.424 38.6201 27.44 38.8681 27.456C39.0521 27.472 39.2321 27.496 39.4081 27.528C39.5921 27.552 39.7641 27.604 39.9241 27.684C40.0361 27.732 40.1401 27.796 40.2361 27.876C40.3321 27.948 40.4081 28.036 40.4641 28.14C40.5521 28.308 40.6201 28.484 40.6681 28.668C40.7161 28.844 40.7561 29.024 40.7881 29.208C40.8441 29.56 40.8641 29.912 40.8481 30.264C40.8401 30.616 40.8041 30.968 40.7401 31.32C40.7001 31.488 40.6521 31.656 40.5961 31.824C40.5401 31.984 40.4601 32.132 40.3561 32.268C40.2761 32.38 40.1841 32.48 40.0801 32.568C39.9761 32.656 39.8641 32.728 39.7441 32.784C39.5281 32.896 39.2961 32.976 39.0481 33.024C38.8001 33.064 38.5521 33.088 38.3041 33.096ZM38.0761 30.78C38.1481 30.796 38.2201 30.812 38.2921 30.828C38.3641 30.836 38.4401 30.832 38.5201 30.816C38.7281 30.792 38.8761 30.716 38.9641 30.588C39.0601 30.46 39.0961 30.324 39.0721 30.18C39.0561 30.028 38.9801 29.892 38.8441 29.772C38.7161 29.644 38.5321 29.568 38.2921 29.544C38.2281 29.536 38.1401 29.564 38.0281 29.628C37.9241 29.684 37.8521 29.736 37.8121 29.784C37.7321 29.872 37.6721 29.964 37.6321 30.06C37.6001 30.156 37.5921 30.252 37.6081 30.348C37.6241 30.436 37.6681 30.52 37.7401 30.6C37.8201 30.68 37.9321 30.74 38.0761 30.78ZM46.2121 36.132C45.9721 36.14 45.7321 36.136 45.4921 36.12C45.2521 36.104 45.0161 36.068 44.7841 36.012C44.6241 35.972 44.4681 35.92 44.3161 35.856C44.1721 35.792 44.0441 35.708 43.9321 35.604C43.7401 35.444 43.5921 35.244 43.4881 35.004C43.3841 34.74 43.3201 34.464 43.2961 34.176C43.2721 33.888 43.2681 33.604 43.2841 33.324C43.3001 32.988 43.3401 32.656 43.4041 32.328C43.4681 32 43.5841 31.696 43.7521 31.416C43.8241 31.296 43.9081 31.184 44.0041 31.08C44.1081 30.968 44.2201 30.872 44.3401 30.792C44.4761 30.696 44.6241 30.624 44.7841 30.576C44.9521 30.528 45.1161 30.492 45.2761 30.468C45.5321 30.436 45.7841 30.428 46.0321 30.444C46.2801 30.46 46.5321 30.476 46.7881 30.492C46.9641 30.508 47.1401 30.532 47.3161 30.564C47.5001 30.588 47.6721 30.64 47.8321 30.72C47.9441 30.776 48.0481 30.84 48.1441 30.912C48.2401 30.984 48.3161 31.076 48.3721 31.188C48.4601 31.348 48.5281 31.52 48.5761 31.704C48.6241 31.888 48.6641 32.072 48.6961 32.256C48.7601 32.6 48.7841 32.948 48.7681 33.3C48.7521 33.652 48.7121 34.004 48.6481 34.356C48.6161 34.524 48.5681 34.692 48.5041 34.86C48.4481 35.02 48.3681 35.168 48.2641 35.304C48.0961 35.536 47.8921 35.712 47.6521 35.832C47.4361 35.944 47.2041 36.02 46.9561 36.06C46.7081 36.1 46.4601 36.124 46.2121 36.132ZM45.9841 33.816C46.0561 33.832 46.1281 33.848 46.2001 33.864C46.2721 33.872 46.3481 33.868 46.4281 33.852C46.6361 33.828 46.7841 33.752 46.8721 33.624C46.9681 33.496 47.0041 33.36 46.9801 33.216C46.9641 33.064 46.8881 32.928 46.7521 32.808C46.6241 32.68 46.4401 32.604 46.2001 32.58C46.1361 32.572 46.0481 32.6 45.9361 32.664C45.8321 32.72 45.7601 32.772 45.7201 32.82C45.6401 32.908 45.5801 33 45.5401 33.096C45.5081 33.192 45.5001 33.288 45.5161 33.384C45.5321 33.472 45.5761 33.556 45.6481 33.636C45.7281 33.716 45.8401 33.776 45.9841 33.816Z" fill="white"/>
</svg>
