<svg width="28" height="28" viewBox="0 0 28 28" fill="none" xmlns="http://www.w3.org/2000/svg">
<path d="M24.6798 12.723C25.4218 13.3325 26.5084 13.2795 27.1842 12.6037C27.9661 11.8219 27.9131 10.5233 27.0517 9.82094C22.2945 5.92506 16.1857 4.48067 10.4214 5.50102L13.8535 8.9331C17.6831 8.89335 21.5392 10.1522 24.6798 12.723ZM21.6717 15.148C20.6381 14.3926 19.5118 13.8228 18.3324 13.4253L22.2415 17.3344C22.5595 16.5658 22.374 15.6515 21.6717 15.148ZM16.5832 20.793C15.7817 20.3814 14.8936 20.1668 13.9926 20.1668C13.0916 20.1668 12.2035 20.3814 11.402 20.793C10.6201 21.2038 10.4744 22.2772 11.0972 22.9L13.0451 24.8479C13.5619 25.3647 14.3968 25.3647 14.9136 24.8479L16.8615 22.9C17.5108 22.2772 17.3783 21.2038 16.5832 20.793ZM24.1762 23.006L3.5572 2.38696C3.43451 2.26428 3.28887 2.16696 3.12857 2.10057C2.96828 2.03417 2.79648 2 2.62298 2C2.44948 2 2.27768 2.03417 2.11739 2.10057C1.95709 2.16696 1.81145 2.26428 1.68876 2.38696C1.56608 2.50965 1.46876 2.65529 1.40237 2.81559C1.33597 2.97588 1.3018 3.14768 1.3018 3.32118C1.3018 3.49468 1.33597 3.66648 1.40237 3.82678C1.46876 3.98707 1.56608 4.13271 1.68876 4.2554L4.78957 7.36945C3.45119 8.03202 2.15256 8.84034 0.959942 9.82094C0.757569 9.98787 0.592338 10.1953 0.474858 10.4298C0.357377 10.6644 0.290243 10.921 0.277765 11.183C0.265286 11.445 0.30774 11.7068 0.4024 11.9515C0.49706 12.1961 0.641834 12.4183 0.827429 12.6037C1.50324 13.2795 2.5766 13.3458 3.30542 12.7362C4.63055 11.6496 6.08819 10.8015 7.61209 10.1787L10.5671 13.1338C9.06973 13.5313 7.63859 14.1939 6.33997 15.1347C5.42563 15.7973 5.37262 17.1357 6.1677 17.9307L6.18095 17.944C6.83027 18.5933 7.85061 18.6596 8.60594 18.1162C10.1501 17.0351 11.982 16.4399 13.8667 16.4068L22.3078 24.8479C22.8246 25.3647 23.6594 25.3647 24.1762 24.8479C24.693 24.3576 24.693 23.5228 24.1762 23.006Z" fill="#4595DD"/>
</svg>
